<svg xmlns="http://www.w3.org/2000/svg" width="161.667" height="79.106" xmlns:v="https://vecta.io/nano"><path d="M110.19.372c-4.479.918-7.435 3.812-8.364 8.189-1.005 4.73-.16 6.898 9.33 23.956 6.531 11.742 7.014 12.835 7.011 15.894-.003 3.739-2.511 6.485-5.922 6.485-3.598 0-4.857-1.768-4.857-6.823v-3.283l-.953-.158c-1.801-.297-3.796-.187-4.14.228-.375.452-.201 5.538.278 8.129 1.805 9.759 16.979 9.842 20.349.112 1.798-5.191.584-9.341-6.506-22.237-7.67-13.952-9.247-17.442-9.318-20.614-.066-2.986 2.683-5.199 6.457-5.199 3.005 0 4.399 1.972 4.732 6.694l.165 2.334 2.416.136c3.044.17 2.88.387 2.734-3.612-.293-7.997-5.379-11.878-13.411-10.232M80.501.426c-.498.317-.796 58.756-.301 59.069.437.277 17.954.314 18.123.039.067-.107.045-1.281-.048-2.607l-.17-2.412-6.033-.044c-3.318-.024-6.13-.104-6.249-.178-.223-.138-.141-19.887.092-22.157l.13-1.272 4.464.075c5.317.09 5.161.161 5.078-2.328-.087-2.609.242-2.451-5.133-2.451H85.76l.121-10.33.282-10.491c.088-.088 2.65-.122 5.693-.074 6.691.104 6.378.247 6.378-2.902V.22l-8.71.004c-4.791.002-8.85.093-9.022.202m-23.621.701c-.09.358-.1 3.363-.022 6.676l.406 21.028.549 21.049c.157 3.325.206 6.618.11 7.318-.133.969-.077 1.423.236 1.9l.41.626 7.053-.135 8.617-.269 1.564-.135.104-2.208c.152-3.231.835-2.944-6.581-2.772l-6.443.15-.023-2.082.005-14.856c.016-7.026-.095-15.323-.247-18.437s-.278-8.481-.279-11.926L62.336.793l-1.16-.159c-2.74-.376-4.117-.217-4.296.494M17.595.834c-.058.058-.092 11.185-.074 24.727l-.323 25.626c-.88 2.493-2.76 3.751-5.633 3.769-3.658.023-5.115-1.799-5.334-6.671-.149-3.314-.143-3.306-2.612-3.306-2.905 0-2.788-.122-2.782 2.889.014 8.3 3.444 12.116 10.89 12.116 5.706 0 9.426-2.669 10.887-7.812.505-1.778.779-50.527.288-51.125-.244-.297-5.03-.488-5.306-.212m11.429.466c-.809 1.503-.267 49.078.593 51.96 1.844 6.187 6.772 8.853 14.365 7.77 3.394-.484 6.409-4.43 7.18-9.393.315-2.033.338-12.202.043-19.628-.108-2.728-.089-8.45.044-12.716.288-9.314.28-18.069-.018-18.368-.119-.119-1.351-.183-2.738-.144l-2.521.073-.023 1.653-.145 35.48c.101 11.104-.145 13.164-1.901 15.946-2.024 3.205-7.175 2.433-8.794-1.318-.483-1.12-.497-1.882-.481-26.521L34.644.729h-2.656c-2.494 0-2.675.035-2.964.572m107.377 28.558c-3.742 3.381-1.305 12.323 3.359 12.323 4.861 0 5.201-10.284.42-12.723-1.524-.777-2.602-.663-3.779.4m12.612.229c-2.862 1.943-4.311 5.313-3.715 8.645 1.255 7.033 9.241 3.319 9.26-4.308.011-4.205-2.66-6.294-5.545-4.337m-21.283 8.499c-2.677 1.431-2.601 6.132.149 9.176 4.129 4.57 9.063.762 6.781-5.233-1.309-3.438-4.49-5.248-6.93-3.943m28.093.691c-4.726 3.086-4.479 11.037.343 11.041 3.759.003 6.787-5.913 4.949-9.669-1.02-2.082-3.3-2.674-5.291-1.373m-15.261 5.172c-4.449 2.552-9.003 10.242-8.016 13.536.867 2.892 3.112 3.672 6.821 2.371 2.997-1.051 3.003-1.051 6.388-.205 8.137 2.035 11.256-.674 8.034-6.977-3.727-7.291-9.308-10.973-13.227-8.725M7.012 64.666l-.713.614-.078 5.311c-.087 5.98.04 6.455 1.807 6.787 2.742.515 3.229-.518 3.229-6.847V65.54l-.743-.744a2.53 2.53 0 0 0-3.503-.13m5.85.001l-.713.614v5.387 5.387l.763.61c2.425 1.94 4.041.455 4.154-3.815l.084-3.202h-1.292c-1.208 0-1.292.041-1.292.636 0 .466.136.636.509.636.661 0 .785 4.286.139 4.822-.535.444-1.222.228-1.595-.501-.461-.9-.262-9.383.227-9.693.888-.564 1.738-.026 1.738 1.099 0 .628.093.712.797.712.79 0 .795-.008.651-1.08-.28-2.089-2.579-2.978-4.167-1.612m33.961-.437c-.084.196-.084 2.464.001 9.551.038 3.242.038 3.242.649 3.242.786 0 .829-.479.661-7.502-.124-5.229-.139-5.342-.675-5.418-.302-.043-.588.014-.636.127m7.351-.001c-.402.105-.447.562-.47 4.739l-.025 4.623-1.176-4.641-1.176-4.641h-.98-.979l.07 6.235c.073 6.529.115 6.842.889 6.693.441-.084.488-.446.605-4.651l.127-4.558.746 3.29c1.248 5.51 1.383 5.833 2.433 5.833h.89l-.006-2.098c-.021-6.669-.144-10.995-.312-10.97-.104.016-.391.082-.636.146m3.67.111c-1.43.416-1.614 1.263-1.523 7.011s.165 5.926 2.483 5.926c1.964 0 2.173-.411 2.173-4.286v-3.216h-1.018c-1.185 0-1.705 1.045-.656 1.32.65.17.796 3.686.187 4.518-1.543 2.111-2.404-2.063-1.728-8.381l.163-1.526h.891c.818 0 .896.067.97.826.13 1.355 1.319 1.208 1.319-.162 0-1.737-1.36-2.584-3.26-2.03m20.922.255l.937 4.036c.479 2.06.844 4.425.914 5.913.114 2.417.132 2.479.729 2.479s.612-.06.612-1.941c0-1.344.268-3.046.873-5.531 1.349-5.553 1.344-5.498.564-5.498-.542 0-.697.163-.903.954-.222.854-1.004 4.568-1.068 5.076-.014.111-.299-1.104-.634-2.7-.698-3.33-.542-2.984-1.452-3.212-.651-.163-.7-.128-.572.424m10.266-.105c-.926.575-.963.807-.967 6.095-.004 5.874.273 6.667 2.337 6.684 1.853.016 2.746-.854 2.746-2.674 0-1.41-1.2-1.291-1.429.143-.183 1.142-1.096 1.652-1.761.983-.481-.485-.585-9.451-.115-10.016.669-.806 1.649-.325 1.818.891.161 1.162 1.487 1.046 1.487-.13 0-1.96-2.335-3.081-4.116-1.977m16.78 2.043c-.047 1.364-.084 4.311-.081 6.549l.005 4.069 2.098.074 2.098.073v-.773c0-.768-.01-.773-1.399-.773h-1.399v-2.416-2.416h1.143c1.653 0 1.575-1.099-.086-1.222l-1.057-.078v-2.147-2.147h1.399c1.322 0 1.399-.034 1.399-.636 0-.625-.035-.636-2.017-.636h-2.017l-.087 2.479m17.677-1.866l-.713.614-.078 5.311c-.087 5.98.039 6.455 1.807 6.787 2.742.515 3.229-.518 3.229-6.847V65.54l-.744-.744a2.53 2.53 0 0 0-3.502-.13m18.136-.426l-.987.102.158 1.318c.087.725.159 3.647.161 6.494l.002 5.176 1.844-.177c2.869-.275 2.844-.226 2.946-5.793.113-6.145-.38-7.48-2.683-7.263l-1.441.144m12.495-.012c-.402.105-.448.562-.47 4.739l-.025 4.623-1.176-4.641-1.176-4.641h-.979-.98l.07 6.235c.073 6.529.115 6.842.889 6.693.441-.084.488-.446.606-4.651l.127-4.558.745 3.29c1.248 5.51 1.383 5.833 2.434 5.833h.89l-.007-2.098c-.021-6.669-.144-10.995-.311-10.97-.105.016-.391.082-.636.146m3.669.111c-1.43.416-1.614 1.263-1.523 7.011s.165 5.926 2.484 5.926c1.964 0 2.173-.411 2.173-4.286v-3.216h-1.017c-1.186 0-1.705 1.045-.656 1.32.65.17.795 3.686.187 4.518-1.544 2.111-2.404-2.063-1.729-8.381l.163-1.526h.89c.818 0 .897.067.97.826.13 1.355 1.319 1.208 1.319-.162 0-1.737-1.36-2.584-3.261-2.03M.155 68.948l.161 6.358.005 1.717h1.752c2.986 0 2.953.07 2.953-6.231v-5.257l-.713-.614c-.609-.523-.978-.613-2.514-.613H0l.155 4.641m20.936-3.067c.256 3.317 1.104 10.939 1.243 11.162.216.351 1.893.28 2.026-.084.064-.175.321-2.378.573-4.896l.457-4.578.329 4.698c.379 5.408.284 5.094 1.548 5.094 1.128 0 1.081.131 1.539-4.324a201.57 201.57 0 0 1 .646-5.413c.47-3.468.496-3.233-.357-3.233h-.729l-.45 4.514c-.701 7.029-.744 7.105-1.106 1.971-.466-6.606-.439-6.485-1.442-6.485-.735 0-.847.093-.98.826-.125.691-.843 7.802-.956 9.474-.019.279-.277-1.895-.573-4.832l-.538-5.341-.677-.078-.676-.078.124 1.604m9.886-1.272c-.061.183-.409 2.793-.771 5.801l-.8 6.186c-.13.666-.089.713.583.636.68-.078.74-.181.985-1.733.262-1.649.262-1.65 1.217-1.805 1.139-.185 1.088-.253 1.315 1.739.176 1.545.202 1.59.922 1.59.71 0 .735-.04.609-.954l-1.612-10.745c-.201-.961-2.172-1.536-2.449-.714m4.807 6.118l.015 6.422 1.998-.048c2.193-.053 2.438-.148 2.036-.79-.178-.284-.68-.46-1.453-.51l-1.182-.078v-5.708-5.708h-.714-.714l.014 6.421m4.895-.154c-.174 6.785-.183 6.704.73 6.704h.621v-3.103c0-3.54.06-3.544 1.386-.076 1.137 2.972 1.149 2.99 2.006 2.881l.656-.084-1.233-3.111-1.233-3.111 1.115-3.2 1.115-3.199-.792.08c-.761.076-.822.174-1.597 2.554-1.186 3.643-1.425 3.685-1.425.247 0-2.817-.006-2.848-.595-2.848h-.595l-.16 6.266m27.633-3.417c.08 1.58.151 4.446.157 6.369l.01 3.496h1.791c2.976 0 3.04-.128 3.04-6.054 0-6.253-.116-6.495-3.154-6.609l-1.992-.075.148 2.872m6.917-2.547c-.062.183-.409 2.793-.771 5.801l-.801 6.186c-.13.666-.088.713.583.636.68-.078.74-.181.986-1.733.262-1.649.262-1.65 1.217-1.805 1.139-.185 1.088-.253 1.314 1.739.176 1.545.203 1.59.922 1.59.71 0 .735-.04.61-.954l-1.612-10.745c-.202-.961-2.172-1.536-2.449-.714m19.837 0c-.062.183-.409 2.793-.771 5.801l-.801 6.186c-.13.666-.088.713.583.636.68-.078.74-.181.985-1.733.262-1.649.263-1.65 1.217-1.805 1.139-.185 1.088-.253 1.314 1.739.176 1.545.203 1.59.922 1.59.71 0 .735-.04.61-.954l-1.612-10.745c-.202-.961-2.172-1.536-2.449-.714m4.866 6.118l.045 6.422.655.081c.705.087.821-.508.667-3.436-.06-1.155.156-2.113.477-2.113.111 0 .58 1.192 1.041 2.648.748 2.361.911 2.663 1.498 2.775.957.184.956.164-.012-2.809l-.886-2.721.652-.56c.599-.516.658-.752.739-2.986.117-3.251-.271-3.722-3.064-3.722h-1.856l.045 6.421m17.286 0l.229 6.508c.277.312 3.518-.338 3.941-.791.961-1.032 1.009-5.006.069-5.768-.482-.39-.483-.422-.034-1.16.876-1.443.442-4.617-.692-5.052-.226-.087-1.143-.158-2.038-.158h-1.627l.152 6.421m12.469-5.213l-.81 6.273c-.528 4.085-.591 5.106-.326 5.277.766.494 1.09.095 1.322-1.633l.231-1.715h1.084 1.084l.177 1.653c.173 1.618.192 1.653.921 1.653.699 0 .737-.051.609-.827a121.98 121.98 0 0 1-.385-2.734l-.766-5.307-.516-3.624c0-.124-.556-.224-1.237-.224h-1.236l-.154 1.208m5.087 5.213l.045 6.422.655.081c.705.087.821-.508.667-3.436-.06-1.155.157-2.113.478-2.113.111 0 .58 1.192 1.041 2.648.748 2.361.91 2.663 1.498 2.775.957.184.957.164-.012-2.809l-.887-2.721.652-.56c.6-.516.658-.752.74-2.986.117-3.251-.271-3.722-3.065-3.722h-1.855l.045 6.421m11.869-3.711c.091 1.491.166 4.409.166 6.485v3.775h.609c.807 0 .869-.665.711-7.566l-.124-5.404h-.764-.764l.165 2.71M9.446 65.668c.31.372.44 9.13.148 9.892-.284.742-1.172.834-1.705.176-.642-.793-.586-9.754.063-10.164.544-.343 1.163-.304 1.494.095m116.476 0c.309.372.44 9.13.148 9.892-.285.742-1.173.834-1.706.176-.642-.793-.586-9.754.063-10.164.545-.343 1.163-.304 1.495.095m-122.614.228c.354.448.635 8.39.327 9.202-.202.53-.416.652-1.145.652h-.897v-5.086-5.087h.732c.402 0 .845.144.983.318m29.654 5.595c.117.942.108.953-.77.953s-.887-.006-.747-.953c.078-.525.211-1.87.297-2.988.301-3.947.392-3.724 1.22 2.988m38.6-5.492c.255.307.374 1.531.438 4.546.103 4.747-.018 5.205-1.369 5.205h-.881v-5.086-5.087h.731c.403 0 .889.19 1.081.421m5.651 5.492c.116.942.107.953-.77.953s-.888-.006-.747-.953c.078-.525.211-1.87.297-2.988.301-3.947.393-3.724 1.221 2.988m19.837 0c.116.942.107.953-.771.953s-.887-.006-.746-.953c.078-.525.211-1.87.297-2.988.301-3.947.393-3.724 1.221 2.988m6.286-4.837c.564 2.097-.119 3.888-1.413 3.702-.463-.067-.517-.293-.584-2.426l-.073-2.352h.89c.831 0 .908.071 1.18 1.076m16.726-.745c1.003 1.207.424 3.738-.854 3.738-.618 0-.63-.038-.63-2.035 0-2.107.588-2.783 1.483-1.704m11.847 5.836c.123.634.067.699-.606.699-1.063 0-1.084-.135-.595-3.736l.442-3.257.312 2.797c.171 1.539.373 3.113.448 3.497m6.268-5.091c.565 2.097-.119 3.888-1.412 3.702-.463-.067-.518-.293-.584-2.426l-.073-2.352h.89c.832 0 .909.071 1.18 1.076m5.823-.707c.426.514.423 9.179-.004 9.693-.166.201-.632.365-1.034.365h-.732v-5.214-5.214h.732c.402 0 .869.166 1.038.369m-23.65 5.464c.377.704.335 3.709-.056 4.034-.176.146-.634.344-1.018.44l-.698.175V73.49v-2.571h.754c.485 0 .848.176 1.017.492m-58.483 4.96c0 .342.11.689.244.772.157.097.157.382 0 .794-.539 1.418.192 1.607.853.22.713-1.493.586-2.407-.334-2.407-.639 0-.763.101-.763.621m48.828 0c0 .342.111.689.244.772.157.097.157.382 0 .794-.539 1.418.192 1.607.853.22.713-1.493.586-2.407-.334-2.407-.639 0-.763.101-.763.621" fill="#241c14" fill-rule="evenodd"/></svg>